<?xml version="1.0" standalone="no"?>
<!DOCTYPE svg PUBLIC "-//W3C//DTD SVG 20010904//EN"
 "http://www.w3.org/TR/2001/REC-SVG-20010904/DTD/svg10.dtd">
<svg version="1.0" xmlns="http://www.w3.org/2000/svg"
 width="449.000000pt" height="391.000000pt" viewBox="0 0 449.000000 391.000000"
 preserveAspectRatio="xMidYMid meet">

<g transform="translate(0.000000,391.000000) scale(0.100000,-0.100000)"
fill="#000000" stroke="none">
<path d="M1785 2975 c-198 -67 -514 -174 -702 -236 l-343 -114 0 -82 c0 -52 4
-83 11 -83 9 0 279 90 1121 375 l288 97 704 -236 c387 -130 709 -236 715 -236
8 0 11 26 9 81 l-3 81 -400 134 c-220 74 -540 181 -712 239 -171 58 -315 104
-320 104 -4 -1 -170 -57 -368 -124z"/>
<path d="M1427 2386 c-71 -26 -123 -82 -165 -179 -17 -40 -60 -142 -95 -227
-97 -231 -96 -230 -113 -230 -8 0 -58 5 -111 11 -74 8 -102 8 -119 -2 -42 -22
-67 -123 -45 -181 17 -44 47 -67 112 -84 35 -10 65 -19 67 -20 2 -1 -9 -30
-23 -65 -63 -150 -81 -308 -49 -433 31 -121 116 -244 208 -302 l44 -28 4 -98
c3 -95 4 -99 36 -130 31 -32 36 -33 126 -36 160 -6 196 25 196 173 l0 85 630
0 630 0 0 -82 c0 -65 4 -90 20 -115 27 -44 45 -51 136 -53 143 -3 144 -2 175
31 28 30 29 35 29 129 l0 98 44 26 c91 53 188 193 221 317 30 112 10 332 -39
428 -8 14 -17 36 -20 49 -6 19 -4 22 17 22 63 0 130 46 144 98 10 40 -5 121
-28 154 -22 31 -22 31 -94 25 -40 -4 -97 -9 -127 -13 l-54 -6 -32 69 c-18 38
-32 72 -32 76 0 4 -11 30 -23 59 -13 29 -50 116 -83 192 -64 151 -99 197 -177
235 -43 21 -53 21 -708 21 -534 -1 -671 -4 -702 -14z m1346 -167 c20 -9 43
-54 112 -218 48 -113 96 -227 106 -253 l19 -48 -885 0 c-497 0 -885 4 -885 9
0 5 34 87 76 182 42 96 87 201 101 234 13 33 35 70 49 83 l25 22 629 0 c441 0
636 -3 653 -11z m-1329 -850 c44 -30 66 -77 66 -138 0 -40 -6 -54 -36 -89 -56
-66 -135 -79 -210 -33 -71 43 -86 171 -28 232 59 63 141 74 208 28z m1506 9
c116 -59 113 -226 -4 -279 -52 -23 -80 -23 -132 0 -60 27 -88 72 -89 141 0 65
26 110 83 140 49 25 88 25 142 -2z"/>
</g>
</svg>
