<?xml version="1.0" standalone="no"?>
<!DOCTYPE svg PUBLIC "-//W3C//DTD SVG 20010904//EN"
 "http://www.w3.org/TR/2001/REC-SVG-20010904/DTD/svg10.dtd">
<svg version="1.0" xmlns="http://www.w3.org/2000/svg"
 width="469.000000pt" height="404.000000pt" viewBox="0 0 469.000000 404.000000"
 preserveAspectRatio="xMidYMid meet">

<g transform="translate(0.000000,404.000000) scale(0.100000,-0.100000)"
fill="#000000" stroke="none">
<path d="M964 3146 c-19 -14 -19 -41 -22 -1347 -2 -1183 -1 -1335 13 -1356 14
-21 23 -23 90 -23 l75 0 0 -33 c0 -38 25 -67 58 -67 26 0 52 25 52 50 0 52
-15 50 365 50 l353 0 6 -35 c14 -71 97 -84 112 -18 3 15 7 34 10 41 2 8 26 12
71 12 37 0 75 5 83 10 13 8 15 171 18 1346 2 1188 1 1340 -13 1361 l-15 23
-618 0 c-518 0 -621 -2 -638 -14z m1021 -270 c19 -29 11 -72 -15 -86 -26 -14
-715 -13 -741 0 -26 14 -27 84 -1 99 10 7 152 11 379 11 l363 0 15 -24z m0
-260 c19 -29 11 -72 -15 -86 -26 -14 -715 -13 -741 0 -13 8 -19 21 -19 46 0
65 -13 63 392 64 l368 0 15 -24z m-9 -254 c34 -22 20 -95 -20 -106 -11 -3
-174 -6 -361 -6 -380 0 -385 1 -385 64 0 17 5 37 12 44 9 9 106 12 378 12 201
0 370 -4 376 -8z m22 -524 c9 -9 12 -71 12 -220 0 -195 -1 -208 -19 -218 -29
-15 -62 -12 -83 7 -16 15 -18 35 -18 211 0 168 2 198 17 214 18 20 73 24 91 6z
m-12 -753 c19 -30 4 -72 -31 -85 -16 -6 -167 -10 -363 -10 -378 0 -382 1 -382
64 0 19 6 39 13 45 13 10 685 22 730 12 10 -2 25 -14 33 -26z m-26 -225 c54
-29 44 -92 -17 -109 -23 -7 -164 -11 -358 -11 -365 0 -370 1 -370 65 0 64 3
65 388 65 212 0 345 -4 357 -10z"/>
<path d="M2412 3144 l-22 -15 0 -1344 c0 -1319 0 -1344 19 -1355 11 -5 49 -10
85 -10 60 0 66 -2 66 -21 0 -23 18 -60 34 -71 35 -24 86 13 86 62 l0 30 358
-2 357 -3 3 -32 c3 -34 33 -63 63 -63 23 0 47 30 51 65 3 30 3 30 78 35 41 3
81 9 88 13 9 6 12 288 12 1352 0 1208 -2 1345 -16 1359 -14 14 -84 16 -627 16
-538 0 -615 -2 -635 -16z m1010 -261 c24 -21 23 -58 -2 -83 -19 -19 -33 -20
-377 -20 -318 0 -358 2 -375 17 -22 20 -23 51 -2 81 l15 22 361 0 c322 0 363
-2 380 -17z m0 -260 c24 -21 23 -58 -2 -83 -19 -19 -33 -20 -373 -20 -303 0
-356 2 -375 16 -26 18 -29 60 -5 86 15 17 40 18 376 18 321 0 362 -2 379 -17z
m8 -274 c16 -28 5 -65 -24 -84 -20 -14 -71 -15 -376 -13 -335 3 -352 4 -366
22 -18 26 -18 61 2 80 13 14 62 16 384 16 365 0 369 0 380 -21z m-698 -516
c16 -15 18 -35 18 -211 0 -168 -2 -198 -17 -214 -18 -20 -54 -23 -84 -8 -18
10 -19 23 -19 218 0 149 3 211 12 220 17 17 68 15 90 -5z m665 -723 c49 0 55
-87 7 -109 -31 -14 -681 -16 -717 -2 -47 18 -48 92 -2 108 14 4 175 7 357 6
183 -2 343 -3 355 -3z m6 -249 c50 -19 46 -92 -6 -111 -43 -15 -679 -13 -712
2 -44 20 -45 91 -2 108 30 12 689 13 720 1z"/>
</g>
</svg>
