<?xml version="1.0" standalone="no"?>
<!DOCTYPE svg PUBLIC "-//W3C//DTD SVG 20010904//EN"
 "http://www.w3.org/TR/2001/REC-SVG-20010904/DTD/svg10.dtd">
<svg version="1.0" xmlns="http://www.w3.org/2000/svg"
 width="500.000000pt" height="415.000000pt" viewBox="0 0 500.000000 415.000000"
 preserveAspectRatio="xMidYMid meet">

<g transform="translate(0.000000,415.000000) scale(0.100000,-0.100000)"
fill="#000000" stroke="none">
<path d="M4863 4117 c-73 -107 -65 -224 21 -315 26 -29 93 -72 111 -72 3 0 5
49 5 109 l0 110 -27 3 c-17 2 -28 9 -28 18 0 9 11 16 28 18 27 3 27 4 27 83
l0 79 -57 0 c-54 0 -59 -2 -80 -33z"/>
<path d="M2685 3084 c-132 -56 -198 -186 -165 -326 25 -100 152 -198 260 -198
86 0 200 71 240 150 63 123 18 276 -102 351 -44 27 -65 33 -123 36 -49 2 -82
-2 -110 -13z"/>
<path d="M1970 2718 c-37 -40 -27 -65 63 -155 46 -46 88 -83 94 -83 6 0 48 37
92 82 68 69 81 88 81 115 0 35 -29 63 -66 63 -12 0 -41 -16 -64 -35 -23 -19
-43 -35 -45 -35 -2 0 -20 16 -41 35 -43 41 -83 46 -114 13z"/>
<path d="M3278 2629 l-27 -29 31 -30 30 -30 33 29 33 29 -32 31 c-18 17 -34
30 -36 30 -3 -1 -17 -14 -32 -30z"/>
<path d="M2700 2494 c-126 -20 -248 -93 -328 -199 -95 -127 -112 -203 -112
-515 0 -232 6 -274 46 -311 25 -24 30 -24 227 -27 213 -3 236 -1 261 24 23 23
21 106 -2 127 -26 24 -43 21 -118 -18 -103 -55 -192 -45 -268 28 -111 106 -82
269 61 353 42 24 43 26 43 79 0 54 0 55 30 55 28 0 30 -3 30 -35 0 -41 4 -42
45 -15 76 52 152 68 215 46 51 -17 56 -16 63 21 3 16 22 45 42 64 107 108 284
50 302 -99 3 -28 0 -65 -6 -85 -12 -34 -80 -107 -101 -107 -6 0 -10 -17 -10
-37 0 -21 -4 -43 -8 -50 -12 -18 -59 -33 -108 -33 -59 0 -84 -25 -84 -83 0
-33 6 -49 23 -65 21 -20 34 -22 147 -22 112 0 127 2 157 23 52 35 56 55 51
269 -6 229 -19 284 -98 396 -114 163 -305 245 -500 216z"/>
<path d="M3013 2156 c-45 -20 -68 -61 -66 -114 4 -119 167 -153 218 -46 19 40
19 67 1 102 -31 60 -94 84 -153 58z"/>
<path d="M2735 2033 c-32 -9 -248 -134 -278 -162 -79 -72 -77 -164 4 -236 29
-25 42 -29 89 -30 51 0 66 6 193 80 145 84 173 110 184 179 15 94 -99 194
-192 169z"/>
<path d="M2990 1872 c0 -6 -3 -17 -6 -26 -5 -13 2 -16 35 -16 34 0 41 3 41 20
0 13 -7 20 -19 20 -11 0 -26 3 -35 6 -9 3 -16 2 -16 -4z"/>
<path d="M2825 1660 c-3 -5 3 -18 14 -29 25 -25 44 -94 36 -132 l-7 -29 141 0
141 0 0 30 0 30 -95 0 c-105 0 -139 11 -174 56 -12 15 -21 40 -21 55 0 29 -22
40 -35 19z"/>
<path d="M3500 1260 c-175 -59 -445 -144 -520 -164 -469 -127 -450 -124 -450
-82 0 20 8 25 48 36 26 6 58 16 72 20 14 5 105 30 203 56 194 51 200 56 153
110 l-23 28 -114 -11 c-63 -7 -198 -20 -301 -29 l-188 -18 -67 24 c-83 28
-262 39 -327 20 -56 -17 -144 -58 -186 -88 -49 -36 -200 -190 -200 -205 0 -6
78 -57 173 -111 275 -159 278 -161 296 -148 73 53 76 53 384 58 161 3 301 9
312 14 11 5 92 39 180 75 194 81 377 157 465 195 36 15 93 38 127 51 49 19 66
31 78 56 20 42 19 93 -2 109 -20 15 -75 17 -113 4z"/>
<path d="M1446 928 c-38 -63 -97 -170 -94 -173 1 -1 91 -53 198 -114 107 -62
202 -116 210 -122 41 -25 195 -110 203 -112 4 -1 33 40 63 92 42 72 52 96 42
103 -25 16 -294 172 -358 208 -36 20 -105 60 -154 88 -49 29 -90 52 -92 52 -2
0 -10 -10 -18 -22z m104 -63 c48 -25 56 -91 17 -132 -24 -27 -81 -31 -114 -8
-46 32 -36 115 17 142 33 17 45 16 80 -2z"/>
<path d="M1491 806 c-16 -19 -6 -36 20 -36 15 0 20 6 17 22 -4 27 -21 33 -37
14z"/>
</g>
</svg>
