<?xml version="1.0" standalone="no"?>
<!DOCTYPE svg PUBLIC "-//W3C//DTD SVG 20010904//EN"
 "http://www.w3.org/TR/2001/REC-SVG-20010904/DTD/svg10.dtd">
<svg version="1.0" xmlns="http://www.w3.org/2000/svg"
 width="482.000000pt" height="413.000000pt" viewBox="0 0 482.000000 413.000000"
 preserveAspectRatio="xMidYMid meet">

<g transform="translate(0.000000,413.000000) scale(0.100000,-0.100000)"
fill="#000000" stroke="none">
<path d="M3148 3205 c-6 -6 -503 -209 -566 -232 -25 -9 -47 -24 -52 -37 -9
-20 -39 -143 -116 -473 l-38 -163 -443 0 -444 0 6 -32 c12 -75 67 -425 90
-573 14 -88 36 -230 49 -315 14 -85 54 -342 90 -570 83 -523 84 -528 91 -540
4 -6 171 -10 454 -10 l448 0 6 38 c3 20 15 89 26 152 11 63 36 207 56 320 20
113 40 229 46 258 11 62 3 19 123 703 53 300 96 551 96 557 0 9 -71 12 -280
12 -193 0 -280 3 -280 11 0 25 123 535 132 546 5 7 44 26 86 42 150 59 472
190 485 198 21 11 -18 113 -43 113 -9 0 -19 -2 -22 -5z m-828 -1134 c0 -14
-171 -734 -176 -743 -3 -4 -65 -8 -139 -8 l-133 0 -10 63 c-6 34 -23 139 -37
232 -15 94 -38 233 -50 310 -13 77 -21 143 -18 148 6 11 563 9 563 -2z m477
-38 c-3 -27 -15 -102 -27 -168 -11 -66 -32 -183 -45 -260 -13 -77 -30 -171
-37 -210 l-13 -70 -199 -3 -198 -2 6 37 c4 21 20 92 36 158 15 66 52 220 81
343 l53 222 174 0 175 0 -6 -47z"/>
</g>
</svg>
