<?xml version="1.0" standalone="no"?>
<!DOCTYPE svg PUBLIC "-//W3C//DTD SVG 20010904//EN"
 "http://www.w3.org/TR/2001/REC-SVG-20010904/DTD/svg10.dtd">
<svg version="1.0" xmlns="http://www.w3.org/2000/svg"
 width="451.000000pt" height="376.000000pt" viewBox="0 0 451.000000 376.000000"
 preserveAspectRatio="xMidYMid meet">

<g transform="translate(0.000000,376.000000) scale(0.100000,-0.100000)"
fill="#000000" stroke="none">
<path d="M1730 2891 c0 -77 -16 -144 -42 -178 -69 -88 -180 -166 -291 -204
-86 -30 -231 -36 -325 -15 -39 9 -73 16 -76 16 -4 0 -6 -186 -6 -412 0 -443 1
-446 55 -583 87 -218 348 -508 700 -779 55 -42 105 -80 111 -85 13 -10 211
-143 231 -155 21 -12 242 138 468 319 132 104 373 347 457 459 80 107 162 266
183 356 12 52 15 147 15 483 0 229 -2 417 -4 417 -3 0 -51 -11 -108 -25 -57
-14 -121 -25 -142 -25 -116 0 -292 78 -385 170 -79 78 -95 115 -99 228 l-4 92
-369 0 -369 0 0 -79z m431 -661 c224 -42 356 -260 291 -477 -17 -54 -33 -82
-76 -129 -30 -33 -75 -71 -100 -85 l-46 -24 0 -132 0 -133 -130 0 -130 0 0
133 0 132 -45 24 c-25 13 -70 51 -100 83 -191 206 -74 552 205 607 63 12 70
12 131 1z"/>
<path d="M2053 1975 c-103 -44 -91 -194 17 -226 70 -21 150 41 150 116 0 43
-35 94 -75 111 -42 17 -51 17 -92 -1z"/>
</g>
</svg>
