<?xml version="1.0" standalone="no"?>
<!DOCTYPE svg PUBLIC "-//W3C//DTD SVG 20010904//EN"
 "http://www.w3.org/TR/2001/REC-SVG-20010904/DTD/svg10.dtd">
<svg version="1.0" xmlns="http://www.w3.org/2000/svg"
 width="498.000000pt" height="395.000000pt" viewBox="0 0 498.000000 395.000000"
 preserveAspectRatio="xMidYMid meet">

<g transform="translate(0.000000,395.000000) scale(0.100000,-0.100000)"
fill="#000000" stroke="none">
<path d="M2280 3078 c-108 -55 -123 -184 -30 -261 85 -72 218 -26 249 86 11
37 10 50 -4 83 -20 49 -51 82 -94 100 -46 19 -69 18 -121 -8z"/>
<path d="M2045 2609 c-50 -83 -107 -179 -127 -213 -21 -33 -42 -70 -47 -81 -6
-11 -68 -117 -139 -235 l-129 -215 -54 1 c-30 1 -121 3 -204 5 -139 4 -153 2
-191 -18 -50 -27 -110 -93 -135 -147 -13 -30 -24 -106 -39 -271 -11 -127 -27
-300 -35 -386 -8 -86 -15 -179 -15 -206 0 -137 101 -257 238 -283 29 -5 107
-14 174 -20 68 -5 197 -16 288 -24 91 -8 269 -24 395 -35 127 -12 275 -25 330
-31 55 -5 183 -16 285 -25 102 -8 228 -20 280 -25 464 -48 506 -47 596 13 43
28 103 106 117 152 9 26 77 779 77 843 0 103 -61 202 -153 249 -43 21 -80 28
-232 44 -99 10 -183 19 -186 19 -3 0 -11 12 -18 28 -7 15 -47 88 -88 162 -76
134 -176 311 -193 340 -21 37 -265 467 -274 486 -9 17 -16 19 -34 13 -12 -5
-25 -15 -28 -23 -5 -13 68 -148 230 -429 55 -96 138 -242 257 -457 33 -58 59
-107 59 -111 0 -3 -33 -2 -72 3 -40 4 -228 21 -418 38 -190 17 -390 34 -445
40 -55 5 -158 14 -230 20 -142 12 -205 20 -205 25 0 3 262 446 355 600 20 33
64 107 97 164 l61 104 -22 18 c-13 11 -26 19 -30 19 -4 0 -47 -68 -96 -151z
m-545 -889 c224 -21 478 -44 665 -60 61 -5 162 -14 225 -20 63 -6 189 -17 280
-25 91 -8 215 -19 275 -25 61 -5 189 -17 285 -25 264 -22 286 -29 321 -96 18
-36 18 -42 -7 -330 -41 -481 -48 -543 -70 -572 -46 -62 -75 -66 -330 -42 -87
8 -314 28 -504 45 -190 16 -390 35 -445 40 -55 6 -181 17 -280 25 -99 8 -225
20 -280 25 -55 5 -181 17 -280 26 -285 25 -295 37 -269 313 15 171 24 266 45
505 14 155 27 187 89 218 42 22 19 22 280 -2z"/>
<path d="M1394 1502 c-54 -26 -100 -75 -132 -142 -24 -50 -27 -66 -27 -170 0
-100 3 -122 24 -168 45 -99 136 -152 260 -152 109 0 186 57 238 175 13 30 17
68 17 155 1 101 -2 120 -22 160 -54 105 -125 151 -242 157 -59 3 -84 0 -116
-15z m199 -108 c60 -44 87 -145 68 -250 -23 -120 -74 -174 -167 -174 -45 0
-59 5 -89 31 -96 85 -81 326 25 397 28 19 45 23 86 20 29 -3 62 -13 77 -24z"/>
<path d="M1912 1434 c-11 -28 -17 -86 -43 -408 -12 -150 -5 -189 33 -199 47
-13 68 25 75 128 7 124 -2 115 116 112 112 -2 147 9 186 59 49 62 53 175 8
243 -37 55 -101 77 -248 86 l-116 8 -11 -29z m257 -101 c21 -16 27 -30 29 -70
5 -84 -43 -115 -152 -99 l-46 7 0 57 c0 31 3 74 7 96 l6 38 65 -5 c42 -3 74
-12 91 -24z"/>
<path d="M2447 1398 c-18 -14 -25 -70 -48 -386 -12 -173 -9 -206 19 -221 9 -5
97 -17 194 -27 146 -14 179 -15 192 -5 20 17 20 41 2 66 -12 16 -38 22 -158
35 l-143 15 3 85 c2 47 7 88 11 93 4 4 39 3 77 -2 118 -17 194 -17 204 -1 12
19 12 41 1 59 -7 11 -179 39 -254 41 -16 0 -18 9 -15 78 l3 77 55 -3 c30 -2
92 -7 138 -11 64 -5 88 -4 103 7 24 16 25 58 2 71 -17 9 -284 41 -341 41 -16
0 -36 -6 -45 -12z"/>
<path d="M2992 1363 c-23 -9 -36 -48 -43 -133 -37 -475 -36 -510 14 -510 48 0
56 24 68 205 16 249 16 248 68 134 76 -162 160 -333 174 -351 21 -27 60 -32
86 -11 22 18 25 32 46 299 26 311 24 329 -30 329 -44 0 -52 -27 -65 -225 -6
-96 -14 -182 -16 -190 -3 -8 -55 86 -118 216 -118 241 -131 258 -184 237z"/>
</g>
</svg>
