<?xml version="1.0" standalone="no"?>
<!DOCTYPE svg PUBLIC "-//W3C//DTD SVG 20010904//EN"
 "http://www.w3.org/TR/2001/REC-SVG-20010904/DTD/svg10.dtd">
<svg version="1.0" xmlns="http://www.w3.org/2000/svg"
 width="454.000000pt" height="397.000000pt" viewBox="0 0 454.000000 397.000000"
 preserveAspectRatio="xMidYMid meet">

<g transform="translate(0.000000,397.000000) scale(0.100000,-0.100000)"
fill="#000000" stroke="none">
<path d="M2069 3045 c-174 -25 -300 -67 -459 -152 -124 -66 -351 -250 -294
-238 212 47 363 75 382 70 13 -3 78 -60 144 -125 67 -66 124 -120 128 -120 4
0 13 7 20 15 24 29 130 9 142 -26 3 -10 12 -10 38 -1 44 16 103 15 144 -2 18
-8 108 -64 200 -125 91 -61 180 -114 197 -118 37 -7 106 -75 114 -112 3 -15 2
-39 -4 -52 -11 -29 -550 -568 -588 -587 -15 -9 -38 -11 -57 -8 -38 8 -116 82
-116 112 0 12 -56 105 -124 207 -139 207 -153 242 -122 320 16 40 16 41 -9 67
-31 32 -35 103 -8 132 17 19 14 23 -73 108 l-90 89 -73 -14 c-288 -55 -448
-90 -460 -99 -8 -6 -27 -39 -43 -73 -321 -695 1 -1501 714 -1782 418 -165 906
-94 1263 185 207 161 357 370 443 614 92 263 90 590 -4 852 -104 288 -319 549
-579 699 -242 141 -557 203 -826 164z m845 -1232 c69 -70 82 -105 41 -111 -14
-2 -42 18 -88 64 -69 69 -76 81 -55 102 21 21 34 14 102 -55z m182 -27 c59
-59 65 -79 33 -97 -19 -10 -28 -5 -80 47 -55 54 -69 81 -52 97 17 18 49 2 99
-47z m-376 -143 c48 -43 62 -66 54 -87 -12 -31 -50 -17 -98 34 -40 43 -45 53
-36 70 15 29 35 25 80 -17z m267 -45 c33 -33 53 -61 53 -75 0 -13 -2 -23 -4
-23 -2 0 -11 -2 -19 -6 -18 -6 -127 101 -127 126 0 47 35 39 97 -22z m365
-215 c78 -78 96 -114 62 -127 -21 -8 -27 -4 -107 73 -77 74 -90 92 -81 115 13
33 49 16 126 -61z m-346 -5 c43 -40 54 -57 52 -77 -5 -44 -36 -38 -94 20 -55
54 -64 75 -42 97 19 19 26 15 84 -40z m-539 -30 c54 -53 67 -90 37 -102 -21
-8 -42 5 -91 57 -40 42 -53 74 -36 90 16 16 41 4 90 -45z m351 -91 c61 -63 82
-90 82 -110 0 -51 -38 -34 -132 60 -49 48 -88 92 -88 98 0 16 22 35 40 35 9 0
53 -38 98 -83z m-151 -219 c29 -29 53 -56 53 -59 0 -11 -30 -39 -41 -39 -16 0
-109 98 -109 114 0 13 25 35 40 36 2 0 28 -23 57 -52z m582 18 c35 -36 37 -62
9 -80 -14 -9 -25 -3 -58 29 -42 41 -47 54 -28 73 20 20 42 14 77 -22z m-215
-186 c50 -53 49 -51 40 -74 -11 -29 -47 -17 -96 31 -50 50 -56 61 -36 81 22
22 45 13 92 -38z"/>
<path d="M1630 2649 c-19 -4 -118 -24 -220 -44 -195 -37 -204 -41 -241 -107
-13 -25 -13 -25 236 27 122 25 229 42 244 39 18 -4 61 -39 117 -95 49 -49 94
-89 101 -89 7 0 20 12 30 26 l17 26 -116 114 c-63 63 -119 114 -124 113 -5 -1
-25 -5 -44 -10z"/>
<path d="M1936 2341 c-87 -86 -98 -101 -87 -115 8 -9 21 -16 30 -16 21 0 201
182 201 203 0 13 -20 27 -37 27 -4 0 -51 -45 -107 -99z"/>
<path d="M2195 2401 c-11 -5 -86 -75 -167 -156 -156 -156 -171 -180 -149 -239
11 -28 181 -288 207 -316 12 -12 48 20 268 240 140 140 253 257 250 261 -5 8
-22 21 -208 146 -111 75 -146 86 -201 64z"/>
<path d="M2410 1885 c-151 -151 -276 -279 -278 -285 -5 -13 46 -70 62 -70 6 0
137 126 291 280 l279 280 -34 35 c-19 19 -36 35 -39 35 -4 0 -130 -124 -281
-275z"/>
</g>
</svg>
