<?xml version="1.0" standalone="no"?>
<!DOCTYPE svg PUBLIC "-//W3C//DTD SVG 20010904//EN"
 "http://www.w3.org/TR/2001/REC-SVG-20010904/DTD/svg10.dtd">
<svg version="1.0" xmlns="http://www.w3.org/2000/svg"
 width="517.000000pt" height="401.000000pt" viewBox="0 0 517.000000 401.000000"
 preserveAspectRatio="xMidYMid meet">

<g transform="translate(0.000000,401.000000) scale(0.100000,-0.100000)"
fill="#000000" stroke="none">
<path d="M5074 3976 c-7 -42 15 -124 48 -171 43 -64 48 -56 48 80 l0 125 -45
0 c-42 0 -44 -1 -51 -34z"/>
<path d="M2060 2889 c-84 -15 -192 -73 -258 -140 -77 -78 -121 -167 -141 -289
l-15 -96 -70 -33 c-46 -22 -89 -53 -130 -95 -78 -78 -91 -98 -117 -166 -104
-277 34 -560 321 -660 19 -7 91 -15 160 -19 l125 -6 0 -145 0 -145 -106 -3
c-106 -3 -107 -3 -113 22 -9 37 -71 81 -115 81 -50 0 -98 -36 -112 -85 -21
-68 13 -131 81 -151 32 -10 44 -9 76 7 21 11 49 35 62 54 l23 35 117 5 117 5
3 163 2 163 108 -3 107 -3 3 -292 2 -292 -27 -15 c-98 -50 -108 -163 -20 -216
92 -56 205 27 177 130 -10 38 -43 73 -81 85 -18 6 -19 19 -19 306 l0 300 93
-3 92 -3 3 -162 c2 -146 4 -163 20 -164 9 0 60 0 114 1 l96 1 31 -44 c35 -51
46 -57 105 -57 111 0 160 128 77 202 -30 27 -49 32 -101 28 -30 -2 -86 -53
-94 -86 -6 -23 -9 -24 -111 -24 l-105 0 0 154 0 155 323 3 c303 3 326 5 389
26 132 44 254 164 303 297 53 142 32 330 -50 443 -35 48 -104 116 -145 142
-85 54 -144 72 -267 77 l-113 6 0 49 c0 67 -29 121 -82 152 -59 33 -98 40
-146 23 -47 -16 -47 -16 -80 48 -23 45 -119 141 -173 174 -92 54 -231 79 -339
60z m302 -591 c211 -97 285 -368 152 -559 -34 -50 -116 -111 -179 -135 -71
-27 -191 -25 -269 5 -80 32 -174 125 -203 203 -69 183 -11 363 152 466 93 59
243 67 347 20z m849 -40 c69 -31 122 -78 156 -136 25 -43 26 -45 8 -58 -17
-12 -21 -9 -46 35 -44 77 -164 151 -244 151 -19 0 -25 5 -25 21 0 20 4 21 48
17 26 -3 73 -16 103 -30z m208 -299 c1 -9 -8 -19 -19 -22 -11 -3 -20 0 -20 6
0 7 -3 22 -6 34 -4 15 -1 22 13 25 18 4 31 -13 32 -43z m-1752 -825 c21 -21
25 -32 20 -66 -7 -56 -31 -78 -81 -78 -45 1 -66 13 -85 48 -44 82 79 163 146
96z m1170 0 c22 -22 25 -32 20 -70 -6 -54 -27 -73 -81 -74 -54 0 -86 30 -86
82 0 80 90 119 147 62z m-572 -399 c49 -48 26 -129 -42 -149 -33 -10 -90 20
-101 53 -32 90 77 163 143 96z"/>
<path d="M2127 2280 c-55 -14 -93 -36 -144 -83 -67 -61 -96 -125 -101 -222 -5
-104 20 -174 86 -243 67 -69 128 -96 229 -100 72 -4 89 -1 140 23 71 32 136
93 171 160 22 43 26 63 27 140 0 102 -17 149 -80 222 -72 84 -219 130 -328
103z m205 -170 c71 -26 128 -73 110 -91 -10 -11 -17 -10 -40 4 -126 83 -262
88 -363 15 -40 -29 -69 -31 -69 -5 0 16 80 68 129 83 60 20 174 17 233 -6z
m-7 -83 c17 -9 39 -23 50 -32 17 -14 18 -17 4 -31 -15 -14 -20 -13 -54 10 -45
31 -91 41 -151 32 -42 -5 -91 -29 -106 -51 -5 -6 -14 -3 -25 8 -17 18 -17 19
11 40 16 12 43 28 60 34 42 17 173 11 211 -10z m-26 -88 c31 -19 33 -22 17
-37 -15 -15 -18 -15 -45 1 -36 21 -99 22 -128 2 -20 -14 -53 -11 -53 5 0 9 31
36 50 43 38 14 126 6 159 -14z m-55 -81 c16 -26 -4 -53 -40 -53 -23 0 -30 5
-32 23 -2 13 -1 30 2 38 8 20 56 14 70 -8z"/>
<path d="M1572 1108 c-7 -7 -12 -21 -12 -33 0 -45 60 -63 81 -24 23 45 -34 92
-69 57z"/>
<path d="M2742 1108 c-30 -30 -3 -82 40 -76 29 4 47 50 28 72 -15 19 -51 21
-68 4z"/>
<path d="M2178 709 c-36 -21 -16 -79 27 -79 42 0 59 44 29 74 -18 18 -32 20
-56 5z"/>
</g>
</svg>
